<svg width="182" height="47" viewBox="0 0 182 47" fill="none" xmlns="http://www.w3.org/2000/svg">
<path d="M0.185547 9.57674H15.7477V46.7444H26.4713V9.57674H41.9637V0.186035H0.185547V9.57674Z" fill="white"/>
<path d="M81.1136 1.39469C81.1136 11.506 76.7404 17.41 71.8089 23.2908L59.8988 0.278961L47.8027 0.209229L64.4814 32.4491C63.8999 33.4254 63.6207 34.0297 63.6207 34.0297C61.6667 38.2137 61.4341 41.7468 62.8066 46.0703L63.0625 46.8606H73.8326L73.4139 45.4194C72.1578 41.0727 72.2276 38.911 75.0655 34.5643C75.2516 34.2854 75.461 34.0297 75.6703 33.7275C75.8564 33.4951 76.0425 33.2626 76.2286 33.007C76.7171 32.4258 77.2754 31.8215 77.8569 31.1707C83.1373 25.3131 91.1161 16.4338 91.1161 1.41793V0.255717H81.1136V1.39469Z" fill="white"/>
<path d="M122.194 0.186035H101.352V46.7677H112.308V30.0782H122.194C136.43 30.0782 139.431 21.9427 139.431 15.0856C139.431 5.18356 133.639 0.186035 122.194 0.186035ZM122.194 20.734H112.308V9.57674H122.194C127.381 9.57674 129.335 11.0644 129.335 15.0624C129.335 19.1069 127.265 20.734 122.194 20.734Z" fill="white"/>
<path d="M158.83 37.4234V28.0792H177.951V18.8512H158.83V9.57674H181.301V0.186035H147.967V46.7444H181.836V37.4234H158.83Z" fill="white"/>
</svg>
